<svg xmlns="http://www.w3.org/2000/svg" viewBox="0 0 500 300" width="500" height="300"><rect width="500" height="300" fill="#E9F1EF"/>
<circle cx="250" cy="150" r="118" fill="#FBEFD6"/>
<g transform="translate(214,120) scale(1.6)">
      <ellipse cx="0" cy="46" rx="34" ry="10" fill="#14514C" opacity=".10"/>
      <path d="M-34 6 q-14 -8 -8 -20 q10 -4 14 8 Z" fill="#C98F27"/>
      <ellipse cx="0" cy="20" rx="30" ry="24" fill="#EBB042"/>
      <rect x="-20" y="34" width="11" height="14" rx="5" fill="#C98F27"/>
      <rect x="9" y="34" width="11" height="14" rx="5" fill="#C98F27"/>
      <circle cx="26" cy="-8" r="20" fill="#EBB042"/>
      <path d="M12 -22 q-8 -14 6 -16 q6 6 3 16 Z" fill="#C98F27"/>
      <path d="M40 -22 q8 -14 -6 -16 q-6 6 -3 16 Z" fill="#C98F27"/>
      <circle cx="20" cy="-11" r="2.6" fill="#22302E"/>
      <circle cx="33" cy="-11" r="2.6" fill="#22302E"/>
      <ellipse cx="27" cy="-2" rx="4" ry="3" fill="#22302E"/>
      <path d="M23 4 q4 4 8 0" stroke="#22302E" stroke-width="2" fill="none" stroke-linecap="round"/>
      <rect x="8" y="8" width="24" height="7" rx="3.5" fill="#21706F"/>
      <circle cx="20" cy="16" r="3.4" fill="#C98F27"/>
    </g>
<g transform="translate(70,60) rotate(-16) scale(1.5)" fill="#C98F27"><ellipse cx="0" cy="4" rx="4.2" ry="3.4"/><circle cx="-5.8" cy="-1" r="1.9"/><circle cx="5.8" cy="-1" r="1.9"/><circle cx="-3" cy="-4.4" r="1.9"/><circle cx="3" cy="-4.4" r="1.9"/></g><g transform="translate(430,214) rotate(18) scale(1.4)" fill="#21706F"><ellipse cx="0" cy="4" rx="4.2" ry="3.4"/><circle cx="-5.8" cy="-1" r="1.9"/><circle cx="5.8" cy="-1" r="1.9"/><circle cx="-3" cy="-4.4" r="1.9"/><circle cx="3" cy="-4.4" r="1.9"/></g>
</svg>